HIERARCHY
ROOT Hips
{
	OFFSET 0.000000 0.000000 0.000000
	CHANNELS 6 Xposition Yposition Zposition Zrotation Yrotation Xrotation 
	JOINT LHipJoint
	{
		OFFSET 0.000000 0.000000 0.000000
		CHANNELS 3 Zrotation Yrotation Xrotation
		JOINT LeftUpLeg
		{
			OFFSET 1.363060 -1.794630 0.839290
			CHANNELS 3 Zrotation Yrotation Xrotation
			JOINT LeftLeg
			{
				OFFSET 2.448110 -6.726130 0.000000
				CHANNELS 3 Zrotation Yrotation Xrotation
				JOINT LeftFoot
				{
					OFFSET 2.562200 -7.039590 0.000000
					CHANNELS 3 Zrotation Yrotation Xrotation
					JOINT LeftToeBase
					{
						OFFSET 0.157640 -0.433110 2.322550
						CHANNELS 3 Zrotation Yrotation Xrotation
						End Site
						{
							OFFSET 0.000000 0.000000 0.000000
						}
					}
				}
			}
		}
	}
	JOINT RHipJoint
	{
		OFFSET 0.000000 0.000000 0.000000
		CHANNELS 3 Zrotation Yrotation Xrotation
		JOINT RightUpLeg
		{
			OFFSET -1.305520 -1.794630 0.839290
			CHANNELS 3 Zrotation Yrotation Xrotation
			JOINT RightLeg
			{
				OFFSET -2.542530 -6.985550 0.000000
				CHANNELS 3 Zrotation Yrotation Xrotation
				JOINT RightFoot
				{
					OFFSET -2.568260 -7.056230 0.000000
					CHANNELS 3 Zrotation Yrotation Xrotation
					JOINT RightToeBase
					{
						OFFSET -0.164730 -0.452590 2.363150
						CHANNELS 3 Zrotation Yrotation Xrotation
						End Site
						{
							OFFSET 0.000000 0.000000 0.000000
						}
					}
				}
			}
		}
	}
}
MOTION
Frames: 25
Frame Time: 0.008333
2.758065 15.263494 1.880704 135.064063 -82.260242 -67.140831 -8.216440 2.178194 2.208805 -24.289416 -18.063540 -101.990196 -4.867877 6.227329 51.480482 0.595856 -2.180177 -14.280183 -0.070500 0.000000 -44.597700 9.165277 0.385891 4.402219 9.451919 9.579065 -103.450590 4.366735 -6.052657 49.413098 0.024892 5.976670 -17.587240 -0.028400 0.000001 -54.467300
2.669214 15.164946 1.876747 136.584881 -82.375120 -68.311689 -8.230226 2.192859 2.260525 -24.059894 -18.378498 -103.246699 -4.718168 6.425971 52.640110 0.645116 -2.009845 -14.440067 -0.079800 0.000000 -43.823000 9.145203 0.457425 4.316333 9.376546 9.910502 -104.504680 4.081921 -6.344862 51.794863 -0.088204 5.840814 -18.496631 -0.031200 0.000000 -54.596600
2.579041 15.059570 1.875004 138.074585 -82.525857 -69.491403 -8.246638 2.158646 2.293998 -23.664884 -18.611692 -104.512768 -4.499949 6.630287 54.081857 0.721137 -1.767552 -14.743688 -0.099700 -0.000001 -42.715600 9.111447 0.524922 4.223582 9.342135 10.254292 -105.536733 3.778812 -6.631743 54.257185 -0.216618 5.652084 -19.441541 -0.026800 0.000000 -54.605401
2.487277 14.947852 1.875491 139.565672 -82.705513 -70.715142 -8.263573 2.076371 2.309227 -23.124276 -18.758369 -105.763487 -4.224807 6.833127 55.767931 0.822188 -1.473886 -15.222587 -0.133901 0.000000 -41.291300 9.064244 0.590979 4.121313 9.345901 10.600095 -106.532361 3.459631 -6.910881 56.787128 -0.355452 5.426736 -20.418690 -0.014000 0.000000 -54.552999
2.393837 14.830394 1.878166 141.087307 -82.907631 -72.014600 -8.279756 1.949346 2.307992 -22.465337 -18.820246 -106.980867 -3.906233 7.029789 57.659600 0.945625 -1.149769 -15.901647 -0.186600 0.000000 -39.583500 9.004374 0.657439 4.009083 9.383775 10.941192 -107.484410 3.126704 -7.180733 59.373268 -0.499358 5.182642 -21.423861 0.007000 0.000000 -54.459200
2.298437 14.707670 1.883297 142.726623 -83.136690 -73.471900 -8.298149 1.779086 2.293941 -21.705952 -18.792509 -108.166373 -3.556540 7.219469 59.725291 1.087681 -0.815916 -16.795525 -0.261300 -0.000000 -37.654400 8.930208 0.720051 3.889079 9.463328 11.289257 -108.382636 2.783943 -7.438619 61.996158 -0.644082 4.933504 -22.448627 0.035800 -0.000000 -54.348300
2.201079 14.580621 1.890360 144.473302 -83.375479 -75.077339 -8.316402 1.576022 2.267245 -20.897082 -18.693481 -109.294120 -3.189584 7.400798 61.921482 1.245917 -0.481555 -17.902521 -0.360900 -0.000000 -35.590200 8.846819 0.785394 3.760543 9.569528 11.622667 -109.223111 2.432812 -7.684379 64.640434 -0.782214 4.699460 -23.474337 0.069300 -0.000000 -54.325700
2.101729 14.450064 1.899259 146.374624 -83.621874 -76.873296 -8.336891 1.346795 2.230537 -20.068166 -18.532083 -110.365976 -2.814657 7.576239 64.216841 1.417021 -0.153211 -19.204205 -0.486600 -0.000000 -33.511900 8.755352 0.852034 3.625704 9.703674 11.943550 -110.000057 2.076825 -7.916796 67.284407 -0.909199 4.493495 -24.485615 0.104100 -0.000000 -54.403800
2.000488 14.317006 1.909490 148.413271 -83.864645 -78.837540 -8.359314 1.102499 2.185304 -19.259022 -18.329677 -111.376923 -2.439096 7.748087 66.576807 1.598341 0.172554 -20.660970 -0.637900 -0.000000 -31.579500 8.660600 0.923051 3.487011 9.854797 12.239833 -110.715012 1.718011 -8.135954 69.907079 -1.020235 4.326201 -25.459832 0.135900 0.000000 -54.679800
1.897359 14.182332 1.921180 150.698449 -84.112171 -81.071095 -8.388972 0.846247 2.134565 -18.476509 -18.083764 -112.350263 -2.064579 7.921556 68.983532 1.785589 0.495889 -22.225793 -0.812600 0.000000 -29.902900 8.560697 0.991760 3.347213 10.038130 12.530577 -111.358990 1.360685 -8.340149 72.483262 -1.115023 4.198047 -26.384911 0.162500 0.000000 -55.098500
1.792606 14.047181 1.933172 153.074459 -84.341192 -83.413201 -8.420569 0.594177 2.079100 -17.765811 -17.833604 -113.272027 -1.693924 8.096333 71.398721 1.976203 0.832700 -23.825557 -1.007900 -0.000000 -28.696600 8.465706 1.067366 3.209538 10.224194 12.782308 -111.946472 1.005201 -8.531703 74.996055 -1.190106 4.114742 -27.240478 0.179500 0.000000 -55.768700
1.686245 13.912446 1.945728 155.677020 -84.565861 -85.991807 -8.459684 0.345838 2.022379 -17.113381 -17.567021 -114.172965 -1.323744 8.276552 73.813019 2.164430 1.182119 -25.403220 -1.218800 0.000000 -27.966700 8.371897 1.141033 3.076160 10.434926 13.021685 -112.467025 0.655688 -8.708822 77.423279 -1.249236 4.065133 -28.023645 0.187800 -0.000001 -56.574601
1.578445 13.779076 1.957891 158.332586 -84.771320 -88.626488 -8.500958 0.112738 1.966254 -16.542570 -17.313946 -115.045450 -0.953660 8.459810 76.195781 2.346318 1.554700 -26.887782 -1.440900 -0.000000 -27.844800 8.287609 1.218742 2.950923 10.645689 13.223940 -112.936066 0.312953 -8.873840 79.752884 -1.293238 4.046358 -28.733051 0.186501 0.000000 -57.541601
1.469303 13.647961 1.969405 161.015615 -84.961059 -91.287832 -8.544205 -0.103189 1.913642 -16.045864 -17.075814 -115.896846 -0.581590 8.644836 78.530273 2.516669 1.948263 -28.230804 -1.667700 -0.000000 -28.282700 8.213712 1.297880 2.836126 10.857589 13.393395 -113.354584 -0.020692 -9.026969 81.972993 -1.326400 4.047382 -29.377558 0.178000 0.000001 -58.582700
1.358790 13.519857 1.979812 163.591509 -85.133404 -93.836038 -8.586463 -0.298581 1.867291 -15.622253 -16.863983 -116.721900 -0.207910 8.827964 80.795967 2.671688 2.358334 -29.399781 -1.893399 0.000000 -29.182900 8.153877 1.378810 2.734696 11.059028 13.521318 -113.730807 -0.343825 -9.169636 84.077998 -1.352565 4.060438 -29.972671 0.164400 0.000000 -59.634300
1.246787 13.395478 1.989305 166.122695 -85.298682 -96.331556 -8.630330 -0.476807 1.831288 -15.247259 -16.665584 -117.525312 0.167742 9.006887 82.980119 2.806387 2.770626 -30.375356 -2.109100 0.000000 -30.461600 8.104989 1.456446 2.647166 11.260564 13.622282 -114.057798 -0.654084 -9.300989 86.062791 -1.377134 4.072573 -30.535584 0.150200 0.000000 -60.601200
1.133318 13.275524 1.997218 168.292334 -85.450084 -98.457905 -8.669737 -0.634354 1.806955 -14.931348 -16.504162 -118.277071 0.539192 9.174988 85.058374 2.920912 3.174028 -31.170653 -2.310801 -0.000000 -31.897500 8.073189 1.534249 2.577026 11.434024 13.671132 -114.352174 -0.951494 -9.423865 87.930692 -1.401647 4.085445 -31.085549 0.135500 0.000000 -61.474000
1.018032 13.160558 2.003904 170.158290 -85.598031 -100.271793 -8.708575 -0.776262 1.797992 -14.650638 -16.364578 -118.970186 0.902848 9.329503 87.018526 3.013107 3.548276 -31.802159 -2.491299 0.000000 -33.411200 8.054274 1.607493 2.524106 11.588920 13.681314 -114.605199 -1.234193 -9.537155 89.682015 -1.429307 4.093521 -31.636979 0.122799 -0.000000 -62.200100
0.900832 13.051268 2.009363 171.576256 -85.744155 -101.633067 -8.746356 -0.904072 1.806001 -14.401372 -16.251860 -119.581695 1.251336 9.466470 88.844675 3.084583 3.876097 -32.311175 -2.648200 0.000000 -34.862901 8.048334 1.675844 2.489234 11.715936 13.646090 -114.818690 -1.501965 -9.641383 91.320624 -1.460189 4.099874 -32.197070 0.111400 0.000000 -62.787800
0.781435 12.948268 2.013853 172.514300 -85.892608 -102.512277 -8.785435 -1.020674 1.832740 -14.174780 -16.161168 -120.091581 1.577391 9.583279 90.524359 3.137783 4.141860 -32.745867 -2.780800 0.000000 -36.160600 8.053051 1.737407 2.472357 11.815439 13.568445 -114.987060 -1.753885 -9.735776 92.847990 -1.493482 4.108973 -32.765858 0.100100 -0.000000 -63.271400
0.659637 12.852288 2.017464 172.778704 -86.042569 -102.718367 -8.825502 -1.127370 1.877662 -13.975927 -16.101433 -120.473857 1.871920 9.677346 92.044342 3.178030 4.336595 -33.167073 -2.893600 0.000000 -37.184600 8.068717 1.791933 2.473595 11.877078 13.438733 -115.112093 -1.990211 -9.820372 94.263577 -1.526069 4.126915 -33.328271 0.086101 0.000000 -63.760000
0.535270 12.764134 2.020656 172.448526 -86.198640 -102.336521 -8.870246 -1.227437 1.941483 -13.794313 -16.060374 -120.717917 2.129711 9.748370 93.398253 3.209022 4.456466 -33.615553 -2.989500 0.000000 -37.993000 8.091302 1.836559 2.490880 11.912935 13.268689 -115.177421 -2.209592 -9.892761 95.563763 -1.555575 4.156400 -33.867144 0.067799 0.000000 -64.258099
0.408201 12.684694 2.023671 171.473766 -86.357170 -101.322236 -8.922966 -1.321935 2.024186 -13.631326 -16.036394 -120.810867 2.345284 9.796390 94.578984 3.236607 4.506878 -34.132254 -3.075100 -0.000000 -38.582400 8.117273 1.869231 2.523548 11.925655 13.061496 -115.173687 -2.410824 -9.950621 96.740616 -1.578908 4.198683 -34.357607 0.043800 -0.000000 -64.858900
0.278216 12.614873 2.026632 169.727064 -86.523156 -99.545765 -8.978372 -1.413566 2.121488 -13.488761 -16.034137 -120.745981 2.514305 9.820183 95.578798 3.266526 4.502061 -34.738353 -3.156900 0.000000 -39.007800 8.150354 1.887293 2.568464 11.918402 12.816851 -115.096531 -2.592120 -9.993700 97.780417 -1.593385 4.250652 -34.772560 0.014200 0.000000 -65.635499
0.145351 12.555672 2.029753 167.261896 -86.695089 -97.067857 -9.038896 -1.503779 2.232748 -13.363383 -16.041076 -120.522779 2.636383 9.820640 96.395184 3.302531 4.460129 -35.432189 -3.239300 0.000000 -39.361000 8.187090 1.886772 2.624213 11.905259 12.548386 -114.927103 -2.750483 -10.018630 98.668310 -1.598866 4.302259 -35.093319 -0.017400 0.000001 -66.582300
